<?xml version="1.0" encoding="UTF-8"?>
<svg width="32" height="32" viewBox="0 0 32 32" fill="none" xmlns="http://www.w3.org/2000/svg">
  <!-- Background circle with gradient -->
  <circle cx="16" cy="16" r="16" fill="url(#gradient)" />
  
  <!-- Portfolio icon -->
  <path d="M10 8h12c1.1 0 2 .9 2 2v12c0 1.1-.9 2-2 2H10c-1.1 0-2-.9-2-2V10c0-1.1.9-2 2-2z" 
        fill="white" 
        fill-opacity="0.9"/>
  
  <!-- Document lines -->
  <rect x="12" y="12" width="8" height="1" rx="0.5" fill="#38bdf8"/>
  <rect x="12" y="15" width="6" height="1" rx="0.5" fill="#38bdf8"/>
  <rect x="12" y="18" width="4" height="1" rx="0.5" fill="#38bdf8"/>
  
  <!-- Code brackets -->
  <path d="M8 16h2v2H8zM22 16h2v2h-2z" 
        fill="#38bdf8"/>
  
  <!-- Gradient definition -->
  <defs>
    <linearGradient id="gradient" x1="0" y1="0" x2="32" y2="32" gradientUnits="userSpaceOnUse">
      <stop offset="0%" stop-color="#0f172a"/>
      <stop offset="100%" stop-color="#0c0a2a"/>
    </linearGradient>
  </defs>
</svg> 